<svg width="115" height="36" viewBox="0 0 115 36" fill="none" xmlns="http://www.w3.org/2000/svg">
<g id="logoPLight" clip-path="url(#clip0_40000529_14470)">
<path id="Vector" d="M0 35.1113V7.80469H5.89569V19.0713H17.8641V7.80469H23.7462V35.1113H17.8641V23.8313H5.89569V35.1113H0Z" fill="white"/>
<path id="Vector_2" d="M41.1745 7.93359C43.5569 7.9336 45.6863 8.46665 47.5749 9.52344L47.5768 9.52441C49.4681 10.5694 50.9633 12.0902 52.0641 14.1006L52.0651 14.1016C53.1681 16.1002 53.7321 18.5462 53.7321 21.46C53.7321 24.3737 53.1681 26.8197 52.0651 28.8184L52.0641 28.8203C51.0319 30.7054 49.653 32.1637 47.9255 33.207L47.5759 33.4102C45.6872 34.4584 43.5573 34.9873 41.1745 34.9873C38.7733 34.9873 36.6348 34.4539 34.7468 33.3975C32.8636 32.3437 31.3724 30.8179 30.2712 28.8066C29.1765 26.8075 28.6169 24.3653 28.6169 21.46C28.6169 18.5456 29.1766 16.0996 30.2712 14.1006C31.3722 12.0896 32.8635 10.5693 34.7458 9.52441L34.7468 9.52344C36.6348 8.46696 38.7733 7.93359 41.1745 7.93359ZM41.1745 12.04C39.666 12.04 38.3253 12.4036 37.1725 13.1465C36.0173 13.8911 35.132 14.9772 34.5085 16.377L34.5075 16.3799C33.8913 17.7848 33.5945 19.4842 33.5944 21.46C33.5944 23.436 33.8912 25.1359 34.5075 26.541L34.5085 26.5439C35.132 27.9435 36.0174 29.0289 37.1725 29.7734C38.3253 30.5165 39.666 30.8799 41.1745 30.8799C42.6831 30.8799 44.0236 30.5164 45.1765 29.7734C46.3316 29.0289 47.2124 27.9434 47.8268 26.5439C48.4531 25.138 48.7546 23.437 48.7546 21.46C48.7545 19.6065 48.4894 17.996 47.9401 16.6436L47.8268 16.377C47.2123 14.9771 46.3317 13.8911 45.1765 13.1465C44.0236 12.4036 42.6831 12.04 41.1745 12.04Z" fill="#AE00ED" stroke="#AE00ED"/>
<path id="Vector_3" d="M73.7268 15.6603C73.6178 14.5847 73.1504 13.7492 72.3243 13.1536C71.4983 12.558 70.3773 12.2603 68.9612 12.2603C67.999 12.2603 67.1866 12.3936 66.5239 12.6603C65.8613 12.9181 65.353 13.2781 64.999 13.7403C64.654 14.2025 64.4816 14.7269 64.4816 15.3136C64.4634 15.8025 64.5678 16.2292 64.7947 16.5936C65.0307 16.9581 65.353 17.2736 65.7615 17.5403C66.1699 17.7981 66.642 18.0247 67.1775 18.2203C67.7131 18.4069 68.2849 18.5669 68.8931 18.7003L71.3984 19.2869C72.6148 19.5536 73.7313 19.9092 74.748 20.3536C75.7646 20.7981 76.6451 21.3447 77.3894 21.9936C78.1338 22.6425 78.7102 23.4069 79.1187 24.2869C79.5362 25.1669 79.7495 26.1758 79.7586 27.3136C79.7495 28.9847 79.3138 30.4336 78.4515 31.6603C77.5982 32.8781 76.3637 33.8247 74.748 34.5003C73.1413 35.1669 71.2033 35.5003 68.934 35.5003C66.6828 35.5003 64.7221 35.1625 63.0519 34.4869C61.3907 33.8114 60.0927 32.8114 59.1577 31.4869C58.2319 30.1536 57.7462 28.5047 57.7008 26.5403H63.4059C63.4694 27.4558 63.7372 28.2203 64.2092 28.8336C64.6903 29.438 65.3303 29.8958 66.1291 30.2069C66.937 30.5092 67.8492 30.6603 68.8659 30.6603C69.8644 30.6603 70.7313 30.5181 71.4665 30.2336C72.2109 29.9492 72.7873 29.5536 73.1957 29.0469C73.6042 28.5403 73.8085 27.9581 73.8085 27.3003C73.8085 26.6869 73.6224 26.1714 73.2502 25.7536C72.8871 25.3358 72.3516 24.9803 71.6435 24.6869C70.9446 24.3936 70.0868 24.1269 69.0701 23.8869L66.0338 23.1403C63.6828 22.5803 61.8265 21.7047 60.4649 20.5136C59.1033 19.3225 58.427 17.718 58.4361 15.7003C58.427 14.0469 58.8763 12.6025 59.7841 11.3669C60.7009 10.1314 61.9581 9.16692 63.5557 8.47359C65.1533 7.78025 66.9687 7.43359 69.002 7.43359C71.0717 7.43359 72.878 7.78025 74.4212 8.47359C75.9734 9.16692 77.1807 10.1314 78.043 11.3669C78.9053 12.6025 79.3501 14.0336 79.3774 15.6603H73.7268Z" fill="white"/>
<path id="Vector_4" d="M82.6622 12.5646V7.80469H105.564V12.5646H97.027V35.1113H91.1994V12.5646H82.6622Z" fill="white"/>
<path id="Vector_5" d="M114.5 26.8125V34.6123H106.514V26.8125H114.5Z" fill="#AE00ED" stroke="#AE00ED"/>
<path id="Vector_6" d="M31.126 0.5H50.8963V3.72667H31.126V0.5Z" fill="white"/>
</g>
<defs>
<clipPath id="clip0_40000529_14470">
<rect width="115" height="36" fill="white"/>
</clipPath>
</defs>
</svg>
